<svg xmlns="http://www.w3.org/2000/svg" version="1.1" xmlns:xlink="http://www.w3.org/1999/xlink" xmlns:svgjs="http://svgjs.dev/svgjs" width="1000" height="328" viewBox="0 0 1000 328"><g transform="matrix(1,0,0,1,-0.6060606060606233,-0.4532911014632077)"><svg viewBox="0 0 396 130" data-background-color="#ffffff" preserveAspectRatio="xMidYMid meet" height="328" width="1000" xmlns="http://www.w3.org/2000/svg" xmlns:xlink="http://www.w3.org/1999/xlink"><g id="tight-bounds" transform="matrix(1,0,0,1,0.2400000000000091,0.1796580585067602)"><svg viewBox="0 0 395.52 120.98774057580698" height="120.98774057580698" width="395.52"><g><svg viewBox="0 0 395.52 120.98774057580698" height="120.98774057580698" width="395.52"><g><svg viewBox="0 0 395.52 120.98774057580698" height="120.98774057580698" width="395.52"><g id="textblocktransform"><svg viewBox="0 0 395.52 120.98774057580698" height="120.98774057580698" width="395.52" id="textblock"><g><rect width="395.52" height="98.42852367276791" fill="none" stroke-width="8.962371322224001" stroke="#010c80" data-fill-palette-color="none" data-stroke-palette-color="tertiary"></rect><rect width="395.52" height="31.212160210218567" y="98.42852367276791" fill="#010c80" data-fill-palette-color="tertiary"></rect></g><g><svg viewBox="0 0 395.52 97.42852367276791" height="97.42852367276791" width="395.52"><g transform="matrix(1,0,0,1,23.461705032,23.461705032)"><svg width="348.596589936" viewBox="2.2 -35.9 250.52 36.3" height="50.50511360876791" data-palette-color="#010c80"><g class="wordmark-text-0" data-fill-palette-color="primary" id="text-0"><path d="M20.45-3.55L20.45 0 2.2 0 2.2-3.1 15.05-21.85 2.7-21.85 2.7-25.35 19.75-25.35 19.75-22.45 6.75-3.55 20.45-3.55ZM44.8-5L44.8-1.3Q41.85 0.25 37.6 0.25L37.6 0.25Q31.85 0.25 28.32-3.28 24.8-6.8 24.8-12.6L24.8-12.6Q24.8-18.65 27.95-22.15 31.1-25.65 36.05-25.65L36.05-25.65Q40.8-25.65 43.6-22.6 46.4-19.55 46.4-13.95L46.4-13.95Q46.4-12.35 46.15-11L46.15-11 28.85-11Q29.3-7.25 31.7-5.25 34.1-3.25 38-3.25L38-3.25Q42.25-3.25 44.8-5L44.8-5ZM36.05-22.2L36.05-22.2Q33.2-22.2 31.2-20.15 29.2-18.1 28.85-14.3L28.85-14.3 42.45-14.3 42.45-15.3Q42.45-18.45 40.75-20.33 39.05-22.2 36.05-22.2ZM72.4-17.45L72.4 0 68.45 0 68.45-16.4Q68.45-19.2 67.02-20.68 65.59-22.15 63.3-22.15L63.3-22.15Q60.45-22.15 58.37-19.95 56.3-17.75 56.3-13.85L56.3-13.85 56.3 0 52.4 0 52.4-25.35 56.3-25.35 56.3-20.95Q58.55-25.7 64.3-25.7L64.3-25.7Q68-25.7 70.2-23.45 72.4-21.2 72.4-17.45L72.4-17.45ZM83.54-25.35L83.54 0 79.59 0 79.59-25.35 83.54-25.35ZM83.39-35.15Q84.14-34.4 84.14-33.3 84.14-32.2 83.39-31.48 82.64-30.75 81.54-30.75 80.44-30.75 79.72-31.48 78.99-32.2 78.99-33.3 78.99-34.4 79.72-35.15 80.44-35.9 81.54-35.9 82.64-35.9 83.39-35.15ZM103.74-4.4L103.74-0.65Q102.09 0.25 100.04 0.25L100.04 0.25Q92.54 0.25 92.54-7.4L92.54-7.4 92.54-22.15 88.49-22.15 88.49-25.35 92.54-25.35 92.54-31.65 96.49-31.65 96.49-25.35 103.49-25.35 103.49-22.15 96.49-22.15 96.49-7.3Q96.49-3.25 100.29-3.25L100.29-3.25Q102.24-3.25 103.74-4.4L103.74-4.4ZM129.49-17.35L129.49 0 125.54 0 125.54-16.4Q125.54-19.15 124.11-20.65 122.69-22.15 120.39-22.15L120.39-22.15Q117.59-22.15 115.49-20 113.39-17.85 113.39-13.85L113.39-13.85 113.39 0 109.49 0 109.49-35.35 113.39-35.35 113.39-20.95Q115.64-25.7 121.39-25.7L121.39-25.7Q125.04-25.7 127.26-23.45 129.49-21.2 129.49-17.35L129.49-17.35ZM140.64-25.35L140.64 0 136.69 0 136.69-25.35 140.64-25.35ZM140.49-35.15Q141.24-34.4 141.24-33.3 141.24-32.2 140.49-31.48 139.74-30.75 138.64-30.75 137.54-30.75 136.81-31.48 136.09-32.2 136.09-33.3 136.09-34.4 136.81-35.15 137.54-35.9 138.64-35.9 139.74-35.9 140.49-35.15ZM155.88-3.05L155.88-3.05Q158.58-3.05 160.18-4.58 161.78-6.1 161.78-8.45L161.78-8.45 161.78-11.7 157.38-11.7Q154.18-11.7 152.58-10.45 150.98-9.2 150.98-7.3 150.98-5.4 152.23-4.23 153.48-3.05 155.88-3.05ZM161.83 0L161.83-3Q159.88 0.25 154.73 0.25L154.73 0.25Q151.18 0.25 149.01-1.85 146.83-3.95 146.83-7.15L146.83-7.15Q146.83-10.8 149.61-12.83 152.38-14.85 157.18-14.85L157.18-14.85 161.78-14.85 161.78-16.15Q161.78-19.15 160.43-20.68 159.08-22.2 155.88-22.2L155.88-22.2Q151.83-22.2 148.68-20.05L148.68-20.05 148.68-24Q151.53-25.75 156.18-25.75L156.18-25.75Q165.73-25.75 165.73-16.05L165.73-16.05 165.73 0 161.83 0ZM176.88-35.35L176.88 0 172.93 0 172.93-35.35 176.88-35.35ZM192.13-3.05L192.13-3.05Q194.83-3.05 196.43-4.58 198.03-6.1 198.03-8.45L198.03-8.45 198.03-11.7 193.63-11.7Q190.43-11.7 188.83-10.45 187.23-9.2 187.23-7.3 187.23-5.4 188.48-4.23 189.73-3.05 192.13-3.05ZM198.08 0L198.08-3Q196.13 0.25 190.98 0.25L190.98 0.25Q187.43 0.25 185.25-1.85 183.08-3.95 183.08-7.15L183.08-7.15Q183.08-10.8 185.85-12.83 188.63-14.85 193.43-14.85L193.43-14.85 198.03-14.85 198.03-16.15Q198.03-19.15 196.68-20.68 195.33-22.2 192.13-22.2L192.13-22.2Q188.08-22.2 184.93-20.05L184.93-20.05 184.93-24Q187.78-25.75 192.43-25.75L192.43-25.75Q201.98-25.75 201.98-16.05L201.98-16.05 201.98 0 198.08 0ZM213.08-3.75L213.08 0 209.13 0 209.13-35.35 213.08-35.35 213.08-21.55Q215.83-25.75 220.78-25.75L220.78-25.75Q225.58-25.75 228.63-22.08 231.68-18.4 231.68-12.45L231.68-12.45Q231.68-7.1 228.8-3.35 225.93 0.4 220.88 0.4L220.88 0.4Q215.78 0.4 213.08-3.75L213.08-3.75ZM213.08-12.85L213.08-12.85Q213.08-7.8 215.25-5.5 217.43-3.2 220.53-3.2L220.53-3.2Q223.58-3.2 225.58-5.75 227.58-8.3 227.58-12.4L227.58-12.4Q227.58-17.1 225.5-19.63 223.43-22.15 220.28-22.15L220.28-22.15Q217.58-22.15 215.33-19.9 213.08-17.65 213.08-12.85ZM252.72-6.75L252.72-6.75Q252.72-3.5 250.45-1.6 248.17 0.3 244.22 0.3L244.22 0.3Q239.62 0.3 236.77-1.25L236.77-1.25 236.77-5.1Q240.12-3.1 243.97-3.1L243.97-3.1Q246.27-3.1 247.47-4 248.67-4.9 248.67-6.45L248.67-6.45Q248.67-8.25 247.35-9.25 246.02-10.25 242.92-11.5L242.92-11.5Q240.07-12.6 238.35-14.25 236.62-15.9 236.62-18.7L236.62-18.7Q236.62-21.85 239-23.73 241.37-25.6 244.92-25.6L244.92-25.6Q248.87-25.6 251.27-24.5L251.27-24.5 251.27-20.75Q248.97-22.15 244.97-22.15L244.97-22.15Q242.97-22.15 241.8-21.23 240.62-20.3 240.62-18.85L240.62-18.85Q240.62-17.95 240.97-17.28 241.32-16.6 242.35-15.95 243.37-15.3 243.85-15.08 244.32-14.85 245.92-14.15L245.92-14.15Q249.12-12.85 250.92-11.2 252.72-9.55 252.72-6.75Z" fill="#010c80" data-fill-palette-color="primary"></path></g></svg></g></svg></g><g transform="matrix(1,0,0,1,75.54432,97.42852367276791)"><svg viewBox="0 0 244.43135999999998 23.559216903039072" height="23.559216903039072" width="244.43135999999998"><g transform="matrix(1,0,0,1,20,3.2)"><svg width="204.43135999999998" viewBox="2.4 -33.2 518.2 43.5" height="17.159216903039074" data-palette-color="#ffffff"><path d="M11.05-30.2L2.4-30.2 2.4-32.75 22.5-32.75 22.5-30.2 13.8-30.2 13.8 0 11.05 0 11.05-30.2ZM34.25-21.25L29.55-21.25 29.55-23.75 36.9-23.75 37-20.85Q38.6-21.85 41.5-22.85 44.4-23.85 46.6-24.05L46.6-24.05 46.6-21.1Q44.55-20.95 41.52-20.1 38.5-19.25 37-18.35L37-18.35 37-2.5 45-2.5 45 0 29.55 0 29.55-2.5 34.25-2.5 34.25-21.25ZM60.9-2.15L60.9-2.15Q62.75-2.15 64.92-3.33 67.09-4.5 68.09-5.5L68.09-5.5 68.09-11.45Q64.8-11.7 61.8-11.7 58.8-11.7 57.3-10.43 55.8-9.15 55.8-7L55.8-7Q55.8-2.15 60.9-2.15ZM60.85 0.45L60.85 0.45Q57.2 0.45 55.1-1.43 53-3.3 53-6.75 53-10.2 55.3-12.1L55.3-12.1Q57.6-14.05 61.4-14.05 65.2-14.05 68.09-13.75L68.09-13.75Q68.09-18.2 67-19.83 65.9-21.45 62.55-21.45 59.2-21.45 54.65-19.85L54.65-19.85 53.9-22.35Q58.55-24.05 62.3-24.05L62.3-24.05Q67.25-24.05 69-21.85 70.75-19.65 70.75-14.15L70.75-14.15 70.75-3.65 71.15 0.15 68.59 0.4 68.09-2.6Q66.95-1.6 64.84-0.58 62.75 0.45 60.85 0.45ZM93.74-33.2L96.39-33.2 96.39-4.15 96.89 0.2 94.34 0.5 93.84-2.15Q90.09 0.45 86.94 0.45L86.94 0.45Q82.49 0.45 80.02-2.85 77.54-6.15 77.54-11.83 77.54-17.5 80.29-20.78 83.04-24.05 87.79-24.05L87.79-24.05Q90.59-24.05 93.74-22.7L93.74-22.7 93.74-33.2ZM80.39-11.9Q80.39-7.5 82.12-4.83 83.84-2.15 87.09-2.15 90.34-2.15 93.74-5L93.74-5 93.74-20Q92.69-20.5 90.87-20.98 89.04-21.45 87.89-21.45L87.89-21.45Q84.34-21.45 82.37-18.88 80.39-16.3 80.39-11.9ZM111.94-21.25L106.14-21.25 106.14-23.75 114.59-23.75 114.59-2.5 120.39-2.5 120.39 0 105.74 0 105.74-2.5 111.94-2.5 111.94-21.25ZM113.04-28.55Q112.14-28.55 111.52-29.18 110.89-29.8 110.89-30.78 110.89-31.75 111.52-32.33 112.14-32.9 113.04-32.9 113.94-32.9 114.52-32.35 115.09-31.8 115.09-30.8 115.09-29.8 114.52-29.18 113.94-28.55 113.04-28.55ZM128.79-23.75L131.34-23.75 131.44-21.75Q136.29-24.05 139.49-24.05 142.69-24.05 144.51-21.85 146.34-19.65 146.34-15.85L146.34-15.85 146.34 0 143.69 0 143.69-15.85Q143.69-18.3 142.49-19.9L142.49-19.9Q141.29-21.45 138.89-21.45 136.49-21.45 131.44-19.25L131.44-19.25 131.44 0 128.79 0 128.79-23.75ZM171.39-23.75L171.39-5.75 171.54 1.15Q171.54 5.6 168.86 7.8 166.19 10 162.24 10 158.29 10 153.24 8L153.24 8 154.14 5.5Q159.09 7.4 162.01 7.4 164.94 7.4 166.91 5.88 168.89 4.35 168.89 1.2L168.89 1.2Q168.89 0.8 168.81-0.58 168.74-1.95 168.74-2.6L168.74-2.6Q165.09-0.05 161.94-0.05L161.94-0.05Q157.44-0.05 155.01-3.13 152.59-6.2 152.59-11.88 152.59-17.55 155.29-20.8 157.99-24.05 162.79-24.05L162.79-24.05Q165.44-24.05 168.74-22.3L168.74-22.3 168.84-23.75 171.39-23.75ZM155.44-11.93Q155.44-7.55 157.14-5.1 158.84-2.65 162.09-2.65 165.34-2.65 168.74-5.5L168.74-5.5 168.74-19.5Q165.64-21.45 162.89-21.45L162.89-21.45Q159.34-21.45 157.39-18.88 155.44-16.3 155.44-11.93ZM206.33 0L203.83 0 203.83-33.2 206.48-33.2 206.48-21.45Q210.23-24.05 213.28-24.05L213.28-24.05Q217.78-24.05 220.23-20.98 222.68-17.9 222.68-12.2 222.68-6.5 219.93-3.03 217.18 0.45 212.43 0.45L212.43 0.45Q209.53 0.45 206.43-1L206.43-1 206.33 0ZM219.83-12.15Q219.83-16.55 218.11-19 216.38-21.45 213.13-21.45 209.88-21.45 206.48-18.6L206.48-18.6 206.48-3.6Q207.53-3.1 209.36-2.63 211.18-2.15 212.33-2.15L212.33-2.15Q215.83-2.15 217.83-4.95 219.83-7.75 219.83-12.15ZM228.33-11.85Q228.33-17.6 230.7-20.83 233.08-24.05 237.63-24.05 242.18-24.05 244.4-21.05 246.63-18.05 246.63-13.05L246.63-13.05 246.48-10.55 231.18-10.55Q231.43-6.8 233.18-4.48 234.93-2.15 238-2.15 241.08-2.15 245.23-3.6L245.23-3.6 245.98-1.1Q241.93 0.45 238.38 0.45L238.38 0.45Q233.48 0.45 230.9-2.83 228.33-6.1 228.33-11.85ZM237.83-21.5L237.83-21.5Q231.53-21.5 231.18-13.05L231.18-13.05 243.78-13.05Q243.78-21.5 237.83-21.5ZM261.33 0.35L252.63-23.75 255.63-23.75 262.68-3.55 263.08-3.55 269.38-23.75 272.38-23.75 263.18 4.05Q261.88 8 260.45 9.1 259.03 10.2 254.68 10.3L254.68 10.3 254.68 7.75Q257.48 7.7 258.43 6.95 259.38 6.2 260.18 3.8L260.18 3.8 261.33 0.35ZM277.92-11.8Q277.92-24.05 287.47-24.05 297.02-24.05 297.02-11.8 297.02 0.45 287.47 0.45 277.92 0.45 277.92-11.8ZM287.47-21.45Q280.77-21.45 280.77-11.8 280.77-2.15 287.47-2.15 294.17-2.15 294.17-11.8 294.17-21.45 287.47-21.45ZM303.77-23.75L306.32-23.75 306.42-21.75Q311.27-24.05 314.47-24.05 317.67-24.05 319.5-21.85 321.32-19.65 321.32-15.85L321.32-15.85 321.32 0 318.67 0 318.67-15.85Q318.67-18.3 317.47-19.9L317.47-19.9Q316.27-21.45 313.87-21.45 311.47-21.45 306.42-19.25L306.42-19.25 306.42 0 303.77 0 303.77-23.75ZM343.72-33.2L346.37-33.2 346.37-4.15 346.87 0.2 344.32 0.5 343.82-2.15Q340.07 0.45 336.92 0.45L336.92 0.45Q332.47 0.45 329.99-2.85 327.52-6.15 327.52-11.83 327.52-17.5 330.27-20.78 333.02-24.05 337.77-24.05L337.77-24.05Q340.57-24.05 343.72-22.7L343.72-22.7 343.72-33.2ZM330.37-11.9Q330.37-7.5 332.09-4.83 333.82-2.15 337.07-2.15 340.32-2.15 343.72-5L343.72-5 343.72-20Q342.67-20.5 340.84-20.98 339.02-21.45 337.87-21.45L337.87-21.45Q334.32-21.45 332.34-18.88 330.37-16.3 330.37-11.9ZM386.36-30.75L380.41-30.7 380.36-33.15 389.01-33.2 389.01-2.5 395.11-2.5 395.11 0 380.21 0 380.21-2.5 386.36-2.5 386.36-30.75ZM411.91-21.25L406.11-21.25 406.11-23.75 414.56-23.75 414.56-2.5 420.36-2.5 420.36 0 405.71 0 405.71-2.5 411.91-2.5 411.91-21.25ZM413.01-28.55Q412.11-28.55 411.49-29.18 410.86-29.8 410.86-30.78 410.86-31.75 411.49-32.33 412.11-32.9 413.01-32.9 413.91-32.9 414.49-32.35 415.06-31.8 415.06-30.8 415.06-29.8 414.49-29.18 413.91-28.55 413.01-28.55ZM426.71-23.75L429.21-23.75 429.36-22.25Q431.86-24.05 433.21-24.05L433.21-24.05Q436.51-24.05 437.76-21.9L437.76-21.9Q440.56-24.05 442.66-24.05L442.66-24.05Q445.91-24.05 447.11-22.05 448.31-20.05 448.31-15.9L448.31-15.9 448.31 0 445.66 0 445.66-15.9Q445.66-18.75 445.06-20.13 444.46-21.5 442.76-21.5 441.06-21.5 438.56-19.9L438.56-19.9Q438.86-18.2 438.86-15.9L438.86-15.9 438.86-7.6 436.21-7.6 436.21-15.9Q436.21-18.75 435.61-20.1L435.61-20.1Q434.96-21.5 433.26-21.5 431.56-21.5 429.36-19.9L429.36-19.9 429.36 0 426.71 0 426.71-23.75ZM461.91-21.25L456.11-21.25 456.11-23.75 464.56-23.75 464.56-2.5 470.36-2.5 470.36 0 455.71 0 455.71-2.5 461.91-2.5 461.91-21.25ZM463.01-28.55Q462.11-28.55 461.48-29.18 460.86-29.8 460.86-30.78 460.86-31.75 461.48-32.33 462.11-32.9 463.01-32.9 463.91-32.9 464.48-32.35 465.06-31.8 465.06-30.8 465.06-29.8 464.48-29.18 463.91-28.55 463.01-28.55ZM482.95-9.1L482.95-20.9 478.75-20.9 478.75-23.4 482.95-23.4 482.95-29.15 485.6-29.65 485.6-23.4 495.1-23.4 495.1-20.9 485.6-20.9 485.6-9.2Q485.6-5.3 486.38-3.7 487.15-2.1 489.55-2.1 491.95-2.1 494.85-3.05L494.85-3.05 495.45-0.55Q492.55 0.5 490.05 0.5 487.55 0.5 486.13-0.15 484.7-0.8 484.03-2.23 483.35-3.65 483.15-5.15 482.95-6.65 482.95-9.1L482.95-9.1ZM503.85-1.15L503.85-1.15 504.5-3.75Q509.45-2.1 512.15-2.1 514.85-2.1 516.33-3.28 517.8-4.45 517.8-6.4 517.8-8.35 516.63-9.28 515.45-10.2 511.75-11.05 508.05-11.9 506.2-13.5L506.2-13.5Q504.35-15 504.35-18 504.35-21 506.63-22.58 508.9-24.15 512.5-24.15 516.1-24.15 520.3-22.55L520.3-22.55 519.6-20.2Q515.35-21.6 512.75-21.6 510.15-21.6 508.65-20.7L508.65-20.7Q507.15-19.7 507.15-18 507.15-16.3 508.48-15.35 509.8-14.4 513.6-13.45 517.4-12.5 519-11.03 520.6-9.55 520.6-6.4 520.6-3.25 518.45-1.4L518.45-1.4Q516.35 0.45 512.45 0.45 508.55 0.45 503.85-1.15Z" opacity="1" transform="matrix(1,0,0,1,0,0)" fill="#ffffff" class="slogan-text-1" data-fill-palette-color="quaternary" id="text-1"></path></svg></g></svg></g></svg></g></svg></g></svg></g><defs></defs></svg><rect width="395.52" height="120.98774057580698" fill="none" stroke="none" visibility="hidden"></rect></g></svg></g></svg>